<svg width="20" height="20" viewBox="0 0 20 20" fill="none" xmlns="http://www.w3.org/2000/svg">
<path d="M18.3333 13.492C18.3333 16.5253 16.525 18.3337 13.4917 18.3337H12.5C12.0417 18.3337 11.6667 17.9587 11.6667 17.5003V12.692C11.6667 12.467 11.85 12.2753 12.075 12.2753L13.5417 12.2503C13.6583 12.242 13.7583 12.1587 13.7833 12.042L14.075 10.4503C14.1 10.3003 13.9833 10.1587 13.825 10.1587L12.05 10.1837C11.8167 10.1837 11.6333 10.0003 11.625 9.77534L11.5917 7.73366C11.5917 7.60032 11.7 7.48367 11.8417 7.48367L13.8417 7.45033C13.9833 7.45033 14.0917 7.342 14.0917 7.20034L14.0583 5.20032C14.0583 5.05865 13.95 4.95033 13.8083 4.95033L11.5583 4.98367C10.175 5.00867 9.07502 6.14199 9.10002 7.52532L9.14167 9.81699C9.15001 10.0503 8.96668 10.2337 8.73335 10.242L7.73334 10.2587C7.59167 10.2587 7.48335 10.367 7.48335 10.5086L7.50835 12.092C7.50835 12.2337 7.61667 12.342 7.75834 12.342L8.75835 12.3253C8.99168 12.3253 9.175 12.5087 9.18333 12.7337L9.25833 17.4837C9.26666 17.9503 8.89166 18.3337 8.42499 18.3337H6.50834C3.475 18.3337 1.66667 16.5253 1.66667 13.4837V6.50866C1.66667 3.47532 3.475 1.66699 6.50834 1.66699H13.4917C16.525 1.66699 18.3333 3.47532 18.3333 6.50866V13.492Z" fill="#051238"/>
</svg>
