<svg width="20" height="20" viewBox="0 0 20 20" fill="none" xmlns="http://www.w3.org/2000/svg">
<path d="M7.50001 18.3337H12.5C16.6667 18.3337 18.3333 16.667 18.3333 12.5003V7.50033C18.3333 3.33366 16.6667 1.66699 12.5 1.66699H7.50001C3.33334 1.66699 1.66667 3.33366 1.66667 7.50033V12.5003C1.66667 16.667 3.33334 18.3337 7.50001 18.3337Z" stroke="#051238" stroke-width="1.5" stroke-linecap="round" stroke-linejoin="round"/>
<path d="M9.99999 12.9163C11.6108 12.9163 12.9167 11.6105 12.9167 9.99967C12.9167 8.38884 11.6108 7.08301 9.99999 7.08301C8.38916 7.08301 7.08333 8.38884 7.08333 9.99967C7.08333 11.6105 8.38916 12.9163 9.99999 12.9163Z" stroke="#051238" stroke-width="1.5" stroke-linecap="round" stroke-linejoin="round"/>
<path d="M14.6968 5.83366H14.7064" stroke="#051238" stroke-width="1.5" stroke-linecap="round" stroke-linejoin="round"/>
</svg>
